<svg version="1.1" id="Layer_1" xmlns="http://www.w3.org/2000/svg" xmlns:xlink="http://www.w3.org/1999/xlink" x="0px" y="0px" viewBox="0 0 200 46.358" width="200" height="46.358" style="enable-background:new 0 0 151 35;" xml:space="preserve"><style type="text/css">.st0{fill:#CC0000;}</style><g><path class="st0" d="M33.113 39.868c-9.272 0 -16.689 -7.55 -16.689 -16.689 0 -9.272 7.55 -16.689 16.689 -16.689 3.311 0 6.358 0.927 8.874 2.517L33.113 23.179l16.689 -9.669a22.119 22.119 0 0 0 -7.55 -7.285c-3.974 -2.384 -9.536 -3.841 -15.762 -3.841 -8.742 0 -16.556 3.179 -20.795 7.947 -3.179 3.576 -5.033 7.947 -5.033 12.848s1.854 9.272 5.033 12.848c4.371 4.768 11.921 7.947 20.53 7.947s16.291 -3.179 20.53 -7.947c0.265 -0.265 0.397 -0.53 0.662 -0.795l-0.662 -2.384c-2.914 4.238 -7.947 7.02 -13.642 7.02"/><path class="st0" d="m88.477 42.914 -7.02 -26.093c-1.192 -4.238 -5.033 -7.285 -9.536 -7.285 -1.192 0 -2.384 0.265 -3.444 0.662l-15.099 5.43H68.874l2.649 9.934c-2.517 -2.252 -5.96 -3.576 -9.536 -3.576 -7.285 0 -13.245 4.901 -13.245 10.861s5.96 10.861 13.245 10.861c5.298 0 9.934 -2.517 12.715 -6.49l1.589 5.695zm-21.325 -4.106c-3.311 0 -6.093 -2.781 -6.093 -6.093s2.781 -6.093 6.093 -6.093 6.093 2.781 6.093 6.093c0 3.444 -2.781 6.093 -6.093 6.093"/><path class="st0" d="M117.086 9.404c-0.927 0 -1.854 0.265 -2.517 0.53l-9.669 4.503c-0.53 -2.914 -2.914 -5.033 -5.96 -5.033 -0.927 0 -1.854 0.265 -2.517 0.53l-11.788 5.563H92.715v27.417h12.185V18.543c0 -1.722 1.325 -3.046 3.046 -3.046s3.046 1.325 3.046 3.046v24.371H123.179V15.497c0 -3.311 -2.781 -6.093 -6.093 -6.093"/><path class="st0" d="M193.377 9.404c-0.927 0 -1.854 0.265 -2.517 0.53l-9.669 4.503c-0.53 -2.914 -3.046 -5.033 -5.96 -5.033 -0.927 0 -1.854 0.265 -2.517 0.53l-11.788 5.563h8.344v27.417h12.185V18.543c0 -1.722 1.325 -3.046 3.046 -3.046s3.046 1.325 3.046 3.046v24.371h12.185V15.497c-0.265 -3.311 -3.046 -6.093 -6.358 -6.093"/><path class="st0" d="M162.649 26.623c0 9.536 -7.682 17.219 -17.219 17.219s-17.219 -7.682 -17.219 -17.219 7.682 -17.219 17.219 -17.219 17.219 7.682 17.219 17.219m-16.424 -11.921c-0.53 -1.987 -2.649 -3.179 -4.636 -2.649s-3.179 2.649 -2.649 4.636l5.96 21.987c0.53 1.987 2.649 3.179 4.636 2.649s3.179 -2.649 2.649 -4.636z"/></g></svg>