<svg xmlns="http://www.w3.org/2000/svg" width="200" height="200" viewBox="0 0 15.42 15.42" version="1.1" xmlns:xlink="http://www.w3.org/1999/xlink"><g fill-rule="evenodd" clip-rule="evenodd"><path fill="#fff" fill-opacity="0" d="M0 0h15.42v15.42H0z"></path><path d="M11.631 7.653c-0.103 -0.264 -0.353 -0.468 -0.62 -0.534 -0.732 -0.195 -1.658 -0.118 -2.163 0.494 -0.293 0.376 -0.465 0.941 -0.247 1.417 0.106 0.278 0.402 0.479 0.68 0.531 0.614 0.08 1.406 0.115 1.9 -0.336 0.462 -0.384 0.617 -1.027 0.45 -1.572m-1.515 1.13c-0.069 0.026 -0.181 0.037 -0.244 -0.012 -0.146 -0.08 -0.098 -0.261 -0.08 -0.382 0.069 -0.224 0.146 -0.539 0.425 -0.582 0.091 -0.009 0.207 0.032 0.244 0.138 0.026 0.324 -0.067 0.654 -0.344 0.838M3.46 5.812l-0.516 1.498 -0.393 -1.498H1.508L0.227 9.469h1.219l0.486 -1.395 0.362 1.395h1.105l1.281 -3.657zm2.021 1.091c0.215 -0.032 0.442 -0.1 0.56 -0.313 0.086 -0.169 0.055 -0.373 -0.049 -0.522 -0.166 -0.175 -0.396 -0.192 -0.64 -0.178 -0.224 0.032 -0.45 0.143 -0.531 0.376 -0.037 0.146 -0.029 0.324 0.069 0.442 0.143 0.175 0.376 0.201 0.591 0.195m-0.888 0.245L3.778 9.472h1.157l0.816 -2.324z"></path><path d="M9.069 7.145H7.726l-0.672 0.785 0.733 -2.118H6.61l-1.281 3.657h1.178l0.331 -0.919 0.186 0.919h1.229l-0.207 -1.116zm5.288 -0.028c-0.516 0 -0.857 0.227 -1.033 0.382l0.134 -0.351H12.239l-0.816 2.324h1.219l0.393 -1.116c0.062 -0.176 0.165 -0.258 0.341 -0.258s0.217 0.176 0.165 0.32l-0.372 1.054h1.178l0.527 -1.508c0.145 -0.413 0 -0.847 -0.517 -0.847m0.594 1.868a0.243 0.243 0 0 0 -0.244 0.242 0.243 0.243 0 0 0 0.244 0.244 0.243 0.243 0 0 0 0.242 -0.244 0.242 0.242 0 0 0 -0.242 -0.242m0 0.457a0.214 0.214 0 0 1 -0.214 -0.215 0.213 0.213 0 0 1 0.214 -0.213 0.213 0.213 0 0 1 0.213 0.213 0.214 0.214 0 0 1 -0.213 0.215"></path><path d="M15.076 9.164c0 -0.023 -0.01 -0.047 -0.031 -0.059 -0.02 -0.012 -0.043 -0.013 -0.066 -0.013h-0.118v0.272h0.033v-0.125h0.061l0.078 0.125h0.039l-0.082 -0.125c0.048 -0.001 0.086 -0.021 0.086 -0.074m-0.131 0.048h-0.051v-0.096h0.078c0.034 0 0.071 0.005 0.071 0.047 0 0.055 -0.059 0.049 -0.098 0.049"></path></g></svg>