<?xml version="1.0" encoding="UTF-8"?>
<!DOCTYPE svg PUBLIC "-//W3C//DTD SVG 1.1//EN" "http://www.w3.org/Graphics/SVG/1.1/DTD/svg11.dtd">
<!-- Creator: CorelDRAW 2019 (64-Bit) -->
<svg xmlns="http://www.w3.org/2000/svg" xml:space="preserve" width="194.213mm" height="73.8762mm" version="1.1" style="shape-rendering:geometricPrecision; text-rendering:geometricPrecision; image-rendering:optimizeQuality; fill-rule:evenodd; clip-rule:evenodd"
viewBox="0 0 194.1738 73.8615"
 xmlns:xlink="http://www.w3.org/1999/xlink"
 xmlns:xodm="http://www.corel.com/coreldraw/odm/2003">
 <defs>
  <style type="text/css">
   <![CDATA[
    .fil1 {fill:black}
    .fil0 {fill:#F5D000}
   ]]>
  </style>
 </defs>
 <g id="Layer_x0020_1">
  <metadata id="CorelCorpID_0Corel-Layer"/>
  <g id="_744015776">
   <path class="fil0" d="M38.9479 68.8279l116.2778 0c18.6531,0 33.9143,-14.1295 33.9143,-31.3987l0 -0.9966c0,-17.2695 -15.2613,-31.3988 -33.9143,-31.3988l-116.2778 0c-18.653,0 -33.9143,14.1294 -33.9143,31.3988l0 0.9966c0,17.2693 15.2614,31.3987 33.9143,31.3987z"/>
   <path class="fil1" d="M38.9479 63.7943l116.2778 0c8.0357,0 15.3077,-3.0129 20.5505,-7.8667 5.1396,-4.7586 8.3302,-11.3077 8.3302,-18.4984l0 -0.9966c0,-7.1909 -3.1907,-13.74 -8.3302,-18.4987 -5.2428,-4.8537 -12.5148,-7.8665 -20.5505,-7.8665l-116.2778 0c-8.0355,0 -15.3077,3.0128 -20.5504,7.8665 -5.14,4.7588 -8.3303,11.308 -8.3303,18.4987l0 0.9966c0,7.1907 3.1904,13.7399 8.3303,18.4984 5.2427,4.8538 12.5149,7.8667 20.5504,7.8667zm116.2778 10.0672l0 0 -116.2778 0c-10.6175,0 -20.3027,-4.052 -27.3537,-10.58 -7.1538,-6.6233 -11.5942,-15.7737 -11.5942,-25.8523l0 -0.9966c0,-10.0789 4.4404,-19.2292 11.5942,-25.8524 7.0511,-6.5278 16.7363,-10.5801 27.3537,-10.5801l116.2778 0c10.6171,0 20.3027,4.0523 27.3536,10.5801 7.1539,6.6233 11.5944,15.7736 11.5944,25.8524l0 0.9966c0,10.0787 -4.4405,19.2291 -11.5944,25.8523 -7.051,6.528 -16.7366,10.58 -27.3536,10.58z"/>
   <polygon class="fil1" points="27.1217,51.2682 37.0102,51.2682 41.7057,38.4172 44.7509,51.2682 55.5969,51.2682 65.5445,19.2109 55.9324,19.2109 51.1905,33.0762 47.092,19.2109 36.978,19.2109 "/>
   <polygon class="fil1" points="81.7858,51.2682 90.9914,51.2682 93.9595,42.8623 96.8206,51.2682 106.7952,51.2682 103.5832,40.8872 114.0576,30.346 102.6191,30.346 95.8182,36.8341 101.4897,19.2109 92.0077,19.2109 "/>
   <path class="fil1" d="M143.0088 51.2682l9.3878 0 2.2771 -7.7688c0.4605,-1.7153 1.2837,-4.0287 3.9302,-4.0739 2.19,0 3.1146,1.815 2.6828,3.3556l-2.014 8.487 9.0258 0 4.0749 -14.2045c0.4835,-3.8777 0.3869,-6.53 -5.922,-6.7814 -4.2735,-0.2583 -6.614,1.699 -8.5749,3.3869l0.7746 -3.321 -9.1634 0 -6.479 20.92z"/>
   <path class="fil1" d="M63.9608 51.2682l9.2975 0 6.4774 -20.7372 -9.2975 0 -6.4774 20.7372zm8.7535 -28.2205l0 0c0,-2.4726 2.7988,-4.3805 5.2535,-4.4774 4.6787,-0.0484 5.5431,2.3919 5.495,4.4774 0,2.4729 -2.4603,4.4776 -5.495,4.4776 -4.7277,0.0521 -5.592,-1.9551 -5.2535,-4.4776z"/>
   <path class="fil1" d="M125.1371 41.3781c0.4221,-2.6484 1.3652,-5.2981 4.3352,-5.5101 1.7268,0.2608 2.294,1.555 2.062,3.9566 -0.3226,1.9954 -1.5098,5.7924 -4.1872,5.7352 -2.5522,-0.055 -2.556,-2.327 -2.2101,-4.1817zm-10.1163 0.9374l0 0c-0.2389,7.3815 4.2511,9.5817 11.1664,9.5363 10.5541,-0.4271 14.8556,-5.7264 15.822,-11.6215 1.0006,-6.1041 -4.8228,-10.3152 -11.7515,-10.3152 -9.6638,0 -14.393,4.1868 -15.237,12.4004z"/>
  </g>
 </g>
</svg>
