<svg xmlns="http://www.w3.org/2000/svg" width="200" height="200" viewBox="0 0 15.42 15.42"><g fill-rule="evenodd" clip-rule="evenodd"><path fill="#fff" fill-opacity="0" d="M0 0h15.42v15.42H0z"/><path d="m4.844 7.468 -0.394 -0.624h-0.71l0.766 1.077v0.584h0.664v-0.594l0.774 -1.068h-0.706zm7.223 0.39c-0.004 0.184 -0.079 0.338 -0.35 0.338 -0.308 0 -0.348 -0.17 -0.348 -0.338v-1.014h-0.673v0.955c0 0.586 0.291 0.752 1 0.752 0.76 0 1.04 -0.204 1.04 -0.75V6.845h-0.668v1.014zm1.517 -0.574c0.001 -0.061 0.073 -0.131 0.238 -0.131 0.073 0 0.166 0.009 0.22 0.031 0.043 0.017 0.094 0.064 0.12 0.112l0.719 0.004c-0.069 -0.282 -0.36 -0.505 -0.972 -0.505 -0.572 0 -0.992 0.182 -0.991 0.543 0.001 0.691 1.308 0.424 1.316 0.73 0.002 0.08 -0.124 0.16 -0.311 0.16 -0.073 0 -0.186 -0.044 -0.239 -0.077 -0.059 -0.037 -0.108 -0.073 -0.124 -0.135h-0.718c0.016 0.307 0.436 0.569 1.04 0.569 0.629 0 1.068 -0.191 1.071 -0.586 0.005 -0.633 -1.371 -0.443 -1.367 -0.716"/><path d="M3.451 6.843h-0.714v1.66h1.599v-0.37H3.451zm3.716 1.041 -0.464 -1.041h-0.705v1.66h0.593V7.66l0.378 0.843h0.387l0.37 -0.826v0.826h0.593V6.843h-0.688zM1.425 6.796c-0.712 0 -1.198 0.347 -1.198 0.881 0 0.579 0.48 0.948 1.198 0.948 0.677 0 1.201 -0.365 1.201 -0.943 0 -0.449 -0.385 -0.886 -1.201 -0.886m0 1.45c-0.374 0 -0.466 -0.313 -0.466 -0.552 0 -0.237 0.106 -0.518 0.46 -0.518 0.344 -0.008 0.476 0.263 0.476 0.518 0 0.31 -0.132 0.552 -0.47 0.552m8.444 -1.401h-1.292v1.657h0.66v-0.602h0.537c0.658 0 0.804 -0.188 0.804 -0.555 0 -0.35 -0.214 -0.503 -0.709 -0.501m-0.282 0.683h-0.35v-0.343h0.346c0.159 0 0.306 0.013 0.306 0.171 0 0.146 -0.127 0.173 -0.302 0.173m5.463 -0.694a0.145 0.145 0 1 0 0 0.29c0.08 0 0.145 -0.065 0.145 -0.145a0.145 0.145 0 0 0 -0.145 -0.145m0 0.273a0.128 0.128 0 1 1 0 -0.255 0.128 0.128 0 0 1 0 0.255"/><path d="M15.123 6.941c0 -0.014 -0.006 -0.028 -0.018 -0.035 -0.012 -0.007 -0.026 -0.008 -0.04 -0.008h-0.071v0.162h0.02v-0.075h0.037l0.046 0.075h0.024l-0.049 -0.075c0.029 -0.001 0.051 -0.012 0.051 -0.044m-0.078 0.029h-0.03v-0.057h0.046c0.02 0 0.042 0.003 0.042 0.028 0 0.033 -0.035 0.029 -0.058 0.029"/></g></svg>