<svg height="53.36" width="200" xmlns="http://www.w3.org/2000/svg" viewBox="0 0 9.6 2.56"><path d="M0 0h9.6v2.56H0z" fill="none"/><path d="M0.64 1.572v-0.091h0.32v0.116a0.107 0.107 0 0 0 0.12 0.108 0.104 0.104 0 0 0 0.116 -0.081 0.146 0.146 0 0 0 -0.002 -0.089c-0.062 -0.156 -0.484 -0.226 -0.538 -0.468a0.432 0.432 0 0 1 -0.002 -0.162C0.685 0.71 0.856 0.64 1.069 0.64c0.169 0 0.402 0.039 0.402 0.3v0.085h-0.297v-0.075a0.102 0.102 0 0 0 -0.111 -0.108 0.1 0.1 0 0 0 -0.109 0.081 0.16 0.16 0 0 0 0.002 0.062c0.035 0.139 0.486 0.213 0.536 0.464a0.56 0.56 0 0 1 0.002 0.197C1.465 1.845 1.287 1.92 1.073 1.92 0.848 1.92 0.64 1.839 0.64 1.572m3.871 -0.004v-0.091h0.315v0.114A0.105 0.105 0 0 0 4.944 1.698a0.103 0.103 0 0 0 0.115 -0.079 0.141 0.141 0 0 0 -0.002 -0.087c-0.06 -0.153 -0.478 -0.224 -0.532 -0.466a0.416 0.416 0 0 1 -0.002 -0.16c0.033 -0.193 0.204 -0.263 0.412 -0.263 0.167 0 0.398 0.041 0.398 0.298v0.083h-0.295v-0.072a0.101 0.101 0 0 0 -0.109 -0.108 0.096 0.096 0 0 0 -0.107 0.079 0.16 0.16 0 0 0 0.002 0.062c0.033 0.139 0.48 0.211 0.53 0.46a0.544 0.544 0 0 1 0.002 0.195c-0.029 0.199 -0.204 0.271 -0.416 0.271 -0.223 0 -0.429 -0.081 -0.429 -0.344m1.13 0.044a0.48 0.48 0 0 1 -0.002 -0.079V0.675h0.301v0.884a0.32 0.32 0 0 0 0.002 0.046 0.117 0.117 0 0 0 0.227 0 0.32 0.32 0 0 0 0.002 -0.046V0.675H6.472v0.857c0 0.023 -0.002 0.066 -0.002 0.079 -0.021 0.224 -0.196 0.296 -0.414 0.296s-0.394 -0.072 -0.415 -0.296zm2.478 -0.012a0.64 0.64 0 0 1 -0.004 -0.079v-0.503c0 -0.021 0.002 -0.058 0.004 -0.079 0.027 -0.224 0.206 -0.294 0.418 -0.294 0.21 0 0.396 0.07 0.416 0.294a0.56 0.56 0 0 1 0.002 0.079v0.039h-0.301v-0.066a0.24 0.24 0 0 0 -0.004 -0.046 0.124 0.124 0 0 0 -0.237 0 0.24 0.24 0 0 0 -0.004 0.056v0.547a0.32 0.32 0 0 0 0.002 0.046 0.118 0.118 0 0 0 0.126 0.087 0.112 0.112 0 0 0 0.122 -0.087 0.16 0.16 0 0 0 0.002 -0.046v-0.174h-0.122V1.199H8.96V1.52a0.64 0.64 0 0 1 -0.004 0.079c-0.021 0.217 -0.208 0.294 -0.418 0.294s-0.398 -0.076 -0.418 -0.294zm-4.195 0.271 -0.008 -1.106 -0.206 1.106h-0.301L3.204 0.764l-0.008 1.106h-0.297l0.025 -1.193h0.484l0.15 0.932 0.15 -0.932h0.484l0.027 1.193zm-1.583 0 -0.161 -1.106 -0.165 1.106h-0.322L1.912 0.677h0.53l0.219 1.193zm5.038 -0.012L7.08 0.866l0.016 0.992h-0.293V0.677h0.441l0.28 0.961 -0.016 -0.961h0.295v1.181z"/></svg>