<svg viewBox="0 0 200 35.2" version="1.1" id="svg1" sodipodi:docname="logo (2).svg" inkscape:version="1.4 (e7c3feb100, 2024-10-09)" width="200" height="35.2" xmlns:inkscape="http://www.inkscape.org/namespaces/inkscape" xmlns:sodipodi="http://sodipodi.sourceforge.net/DTD/sodipodi-0.dtd" xmlns="http://www.w3.org/2000/svg" xmlns:svg="http://www.w3.org/2000/svg"><sodipodi:namedview id="namedview1" pagecolor="#ffffff" bordercolor="#000000" borderopacity="0.25" inkscape:showpageshadow="2" inkscape:pageopacity="0.0" inkscape:pagecheckerboard="0" inkscape:deskcolor="#d1d1d1" inkscape:zoom="0.22421875" inkscape:cx="640" inkscape:cy="111.49826" inkscape:window-width="1280" inkscape:window-height="730" inkscape:window-x="0" inkscape:window-y="0" inkscape:window-maximized="1" inkscape:current-layer="g4"/><defs id="defs1"/><g id="Layer_2"><g id="g4" inkscape:label="logo"><path d="M71.252 35.2c-7.252 0 -13.972 -2.16 -18.452 -6.188a15.141 15.141 0 0 1 -5.02 -11.436 15.364 15.364 0 0 1 5.02 -11.396C56.96 2.4 64.32 0 71.252 0c7.668 0 13.808 1.932 18.5 6.188a15.219 15.219 0 0 1 4.952 11.388 15.864 15.864 0 0 1 -4.952 11.436c-4.372 4.052 -11.236 6.188 -18.5 6.188v-4.632c3.844 0 7.412 -1.328 9.904 -3.808 2.492 -2.48 3.624 -5.488 3.624 -9.2 0 -3.544 -1.244 -6.856 -3.624 -9.2 -2.46 -2.42 -6.112 -3.784 -9.904 -3.784s-7.46 1.352 -9.92 3.784c-2.372 2.348 -3.6 5.672 -3.6 9.2a12.869 12.869 0 0 0 3.6 9.2c2.46 2.452 6.104 3.808 9.92 3.808zM18.3 0c-3.876 0 -8.28 0.728 -12 2.4C2.828 3.952 0 6.444 0 10.576a8.472 8.472 0 0 0 2.3 5.824c1.004 0.928 2.624 2.504 6.856 3.432 1.892 0.4 5.936 1.044 9.964 1.468 4.028 0.424 7.932 0.8 9.532 1.228 1.272 0.324 3.412 0.764 3.412 3.164s-2.252 3.12 -2.644 3.276 -3.096 1.396 -7.952 1.396A33.813 33.813 0 0 1 12 28.736c-1.812 -0.648 -3.712 -1.5 -5.484 -3.664a6.292 6.292 0 0 1 -1.14 -3.472H0.976v12.32H5.864v-1.668a0.696 0.696 0 0 1 1.056 -0.6 38.5 38.5 0 0 0 7.152 2.312c2.568 0.536 4.228 0.924 7.42 0.924a31.656 31.656 0 0 0 9.944 -1.404A17.359 17.359 0 0 0 37.344 30.568a8.095 8.095 0 0 0 3.164 -6.484 9.072 9.072 0 0 0 -2.556 -6.376 11.25 11.25 0 0 0 -3.152 -2.156 23.219 23.219 0 0 0 -3.888 -1.356c-2.536 -0.62 -8.232 -1.396 -10.956 -1.668 -2.856 -0.296 -7.812 -0.708 -9.792 -1.32 -0.6 -0.188 -1.824 -0.768 -1.824 -2.188 0 -1.012 0.56 -1.868 1.664 -2.56 1.756 -1.1 5.3 -1.784 8.996 -1.784a26.094 26.094 0 0 1 10.424 2.036 11.391 11.391 0 0 1 2.48 1.48 7.453 7.453 0 0 1 2.444 4.088h3.948V1.556h-4.4v1.244c0 0.4 -0.4 0.928 -1.2 0.492C30.712 2.26 25.136 0.028 18.3 0m96.596 1.968L136.4 21.372l-0.22 -13.064c-0.024 -1.716 -0.336 -2.432 -2.192 -2.432h-4.04v-3.908h18.4v3.908H144.4c-1.888 0 -2 0.608 -2.032 2.432l0.332 24.964h-6.3L111.628 11.168v15.684c0.02 1.708 0.1 2.512 1.856 2.512h4.4v3.908h-18.036v-3.908h4.224c1.576 0 1.512 -1.504 1.512 -2.6V8.456c0 -1.2 -0.168 -2.576 -2.64 -2.576h-3.424V1.968Zm54.444 27.388a8.75 8.75 0 0 0 1.088 -0.068 1.348 1.348 0 0 0 0.848 -0.752 4.375 4.375 0 0 0 0.084 -0.844v-6.18c0 -0.208 0 -0.212 -0.264 -0.54s-11.264 -12.8 -11.764 -13.36c-0.624 -0.68 -1.72 -1.732 -3.388 -1.732h-3.82V1.968h21.56v3.904h-2.6c-0.6 0 -1 0.572 -0.488 1.2 0 0 7.256 8.68 7.324 8.772 0.068 0.092 0.128 0.112 0.22 0.028 0.092 -0.084 7.436 -8.72 7.492 -8.8a0.748 0.748 0 0 0 -0.64 -1.2h-2.668V1.968H200v3.912h-3.948c-1.432 0 -2 0.264 -3.092 1.48l-11.9 13.576a0.841 0.841 0 0 0 -0.144 0.576v6.176a4.375 4.375 0 0 0 0.088 0.844 1.333 1.333 0 0 0 0.844 0.752 7.969 7.969 0 0 0 1.08 0.068h4.036v3.912h-21.448v-3.912z" id="path1" fill="#000000" style="stroke-width:2.56"/></g></g></svg>